<svg width="401" height="226" viewBox="0 0 401 226" fill="none" xmlns="http://www.w3.org/2000/svg">
<path fill-rule="evenodd" clip-rule="evenodd" d="M110.695 57.0544C119.933 23.6827 150.355 0 185.177 0C212.58 0 237.669 14.6359 251.517 37.9637C260.698 31.1055 271.92 27.2946 283.484 27.2946C295.773 27.2946 307.36 31.3881 316.947 39.112C324.093 44.8689 329.671 52.4074 333.138 60.8572C337.994 59.369 343.039 58.6193 348.208 58.6193C376.912 58.6193 400.19 82.2135 400.191 111.138C400.191 124.199 395.412 136.727 386.727 146.404L386.727 146.405C379.476 154.484 370.002 160.038 359.593 162.39C357.791 175.767 351.629 188.108 341.897 197.617L339.346 195.006L341.897 197.617C330.691 208.565 315.915 214.606 300.313 214.606C283.808 214.606 268.252 207.76 257.061 195.927C251.025 203.473 243.621 209.872 235.262 214.71C223.626 221.447 210.354 225.005 196.875 225.005C178.044 225.005 159.9 218.084 145.788 205.524L148.214 202.798L145.788 205.524C143.106 203.137 140.607 200.578 138.3 197.873L86.5725 224.218L86.5719 224.218C85.5373 224.745 84.4145 225.005 83.2973 225.005C81.6304 225.005 79.9811 224.426 78.6538 223.313C76.4399 221.457 75.5406 218.47 76.3285 215.706L76.3286 215.706L92.3363 159.586C92.8892 157.647 94.9088 156.524 96.8472 157.077C98.7855 157.63 99.9087 159.65 99.3558 161.588L83.3612 217.662L137.603 190.037C139.154 189.247 141.047 189.662 142.125 191.028C144.682 194.27 147.526 197.299 150.641 200.071C163.422 211.446 179.841 217.706 196.875 217.706C209.073 217.706 221.084 214.484 231.605 208.393L231.605 208.393C240.369 203.32 247.99 196.341 253.867 188.038C254.527 187.106 255.586 186.536 256.728 186.499C257.869 186.462 258.963 186.961 259.682 187.849C269.627 200.124 284.481 207.307 300.313 207.307C313.998 207.307 326.946 202.019 336.796 192.396C345.938 183.463 351.494 171.704 352.628 159.005C352.776 157.353 354.018 156.009 355.652 155.731C365.487 154.061 374.508 149.09 381.295 141.529C388.77 133.199 392.891 122.41 392.891 111.138C392.891 86.1688 372.805 65.9187 348.208 65.9187C342.676 65.9187 337.34 66.9131 332.279 68.8754C331.348 69.2364 330.309 69.2001 329.406 68.7747C328.502 68.3494 327.812 67.5723 327.497 66.6246C324.658 58.0917 319.376 50.4424 312.368 44.7961C304.075 38.1149 294.103 34.594 283.484 34.594C272.216 34.594 261.294 38.7969 252.864 46.2719C252.023 47.0183 250.884 47.3348 249.778 47.1299C248.672 46.9249 247.722 46.2213 247.204 45.223C235.156 22.0182 211.306 7.2994 185.177 7.2994C152.88 7.2994 124.671 29.8637 117.113 61.3916C116.73 62.9895 115.326 64.1345 113.684 64.1885C105.386 64.4617 97.634 66.9488 90.9808 71.0881C89.2693 72.1529 87.0187 71.6287 85.9539 69.9173C84.8891 68.2058 85.4133 65.9552 87.1248 64.8904C94.091 60.5563 102.11 57.7808 110.695 57.0544Z" fill="#FF0000"/>
<path fill-rule="evenodd" clip-rule="evenodd" d="M0 90.8816C0 88.866 1.63403 87.2319 3.6497 87.2319H10.855C12.7448 87.2319 14.9266 87.5299 16.7177 88.7774C18.7585 90.1989 19.6631 92.3929 19.6631 94.762V125.296H12.3637V94.762C12.3637 94.7385 12.3633 94.7168 12.3627 94.6967C12.3162 94.6825 12.2601 94.6672 12.193 94.6518C11.8957 94.5837 11.4597 94.5313 10.855 94.5313H3.6497C1.63403 94.5313 0 92.8973 0 90.8816Z" fill="black"/>
<path fill-rule="evenodd" clip-rule="evenodd" d="M0 125.551C0 123.535 1.63403 121.901 3.6497 121.901H22.004C24.0197 121.901 25.6537 123.535 25.6537 125.551C25.6537 127.567 24.0197 129.201 22.004 129.201H3.6497C1.63403 129.201 0 127.567 0 125.551Z" fill="black"/>
<path fill-rule="evenodd" clip-rule="evenodd" d="M15.8858 64.4172C17.9015 64.4172 19.5355 66.0513 19.5355 68.0669V78.2638C19.5355 80.2794 17.9015 81.9135 15.8858 81.9135C13.8701 81.9135 12.2361 80.2794 12.2361 78.2638V68.0669C12.2361 66.0513 13.8701 64.4172 15.8858 64.4172Z" fill="#FF0000"/>
<path fill-rule="evenodd" clip-rule="evenodd" d="M85.1654 140.591C85.1654 138.576 86.7994 136.942 88.8151 136.942H100.414C102.43 136.942 104.064 138.576 104.064 140.591C104.064 142.607 102.43 144.241 100.414 144.241H88.8151C86.7994 144.241 85.1654 142.607 85.1654 140.591Z" fill="black"/>
<path fill-rule="evenodd" clip-rule="evenodd" d="M85.038 90.7542C85.038 88.7385 86.672 87.1045 88.6877 87.1045H90.793C93.1589 87.1045 95.3826 87.7402 97.0224 89.3234C98.6693 90.9133 99.2202 92.969 99.2202 94.7692V140.591C99.2202 142.607 97.5862 144.241 95.5705 144.241C93.5549 144.241 91.9208 142.607 91.9208 140.591V94.7692C91.9208 94.6731 91.9142 94.6055 91.9067 94.5603C91.7707 94.5018 91.4432 94.4039 90.793 94.4039H88.6877C86.672 94.4039 85.038 92.7699 85.038 90.7542ZM91.9865 94.6029C91.9862 94.6032 91.9819 94.6005 91.974 94.5941C91.9828 94.5995 91.9867 94.6027 91.9865 94.6029ZM91.8933 94.5013C91.8874 94.4906 91.8854 94.4843 91.8859 94.4838C91.8864 94.4833 91.8893 94.4886 91.8933 94.5013Z" fill="black"/>
<path fill-rule="evenodd" clip-rule="evenodd" d="M118.19 91.2687C121.803 94.6132 123.82 99.6825 123.82 106.014C123.82 113.99 122.035 119.899 118.538 123.833C114.972 127.846 110.173 129.201 105.526 129.201C102.863 129.201 99.7754 128.391 97.2853 127.029C95.0238 125.793 91.9209 123.32 91.9209 119.422C91.9209 117.406 93.5549 115.772 95.5706 115.772C97.5566 115.772 99.1721 117.358 99.2192 119.333C99.2375 119.348 99.4196 119.877 100.787 120.625C102.267 121.434 104.157 121.901 105.526 121.901C108.776 121.901 111.3 120.989 113.082 118.985C114.933 116.902 116.521 113.041 116.521 106.014C116.521 101.235 115.033 98.2923 113.232 96.6253C111.419 94.9474 108.868 94.1656 105.949 94.5067C103.602 94.7811 101.952 95.2082 100.889 95.9822C100.113 96.5476 99.2203 97.603 99.2203 100.459C99.2203 102.474 97.5863 104.109 95.5706 104.109C93.5549 104.109 91.9209 102.474 91.9209 100.459C91.9209 95.7168 93.5949 92.2654 96.5911 90.0825C99.3008 88.1083 102.628 87.5457 105.102 87.2566C109.818 86.7055 114.589 87.935 118.19 91.2687Z" fill="black"/>
<path fill-rule="evenodd" clip-rule="evenodd" d="M165.082 92.1434C167.856 88.6592 171.706 87.0454 176.123 87.0454C181.857 87.0454 186.217 88.8657 188.869 92.8477C191.283 96.4734 191.794 101.244 191.794 105.937C191.794 107.952 190.16 109.586 188.144 109.586H167.706C167.753 112.903 168.408 115.426 169.486 117.249C170.789 119.451 172.952 121.048 176.557 121.694C180.718 121.94 183.81 120.071 184.867 117.914C185.753 116.104 187.94 115.355 189.75 116.242C191.56 117.129 192.308 119.315 191.421 121.126C188.681 126.719 182.168 129.42 175.859 128.963C175.744 128.955 175.63 128.941 175.516 128.922C170.022 127.995 165.783 125.327 163.204 120.965C160.713 116.754 160.044 111.427 160.574 105.606C161.078 100.075 162.45 95.4485 165.082 92.1434ZM168.437 102.287H184.337C184.097 99.8192 183.581 98.0768 182.793 96.8936C181.9 95.5517 180.249 94.3448 176.123 94.3448C173.65 94.3448 172.016 95.1527 170.792 96.6899C169.847 97.8776 169.01 99.6774 168.437 102.287Z" fill="black"/>
<path fill-rule="evenodd" clip-rule="evenodd" d="M200.138 89.7118C203.069 87.7999 206.909 86.9497 211.016 87.3085C214.012 87.5704 216.868 88.2035 219.205 89.5476C221.673 90.967 223.474 93.139 224.184 96.0883C224.656 98.048 223.449 100.019 221.49 100.491C219.53 100.962 217.559 99.756 217.087 97.7963C216.891 96.981 216.468 96.3938 215.566 95.8753C214.534 95.2816 212.874 94.7981 210.38 94.5802C207.607 94.3378 205.461 94.9551 204.126 95.8257C202.819 96.6779 202.376 97.6697 202.376 98.5375C202.376 100.148 202.706 100.805 203.444 101.438C204.517 102.356 206.767 103.43 211.537 104.557C215.778 105.559 219.112 106.692 221.408 108.365C222.627 109.253 223.628 110.343 224.297 111.697C224.963 113.045 225.191 114.435 225.191 115.766C225.191 118.942 224.302 122.325 221.784 124.979C219.252 127.648 215.535 129.094 210.86 129.302C201.621 129.712 196.764 124.338 195.394 121.275C194.572 119.435 195.396 117.277 197.236 116.454C199.077 115.631 201.235 116.456 202.058 118.296C202.346 118.941 204.624 122.272 210.536 122.01C213.904 121.86 215.609 120.882 216.488 119.955C217.381 119.014 217.892 117.63 217.892 115.766C217.892 115.277 217.811 115.049 217.752 114.929C217.696 114.816 217.556 114.59 217.111 114.265C216.079 113.513 213.991 112.637 209.859 111.661C204.918 110.493 201.182 109.11 198.696 106.981C195.876 104.566 195.076 101.585 195.076 98.5375C195.076 94.7473 197.179 91.642 200.138 89.7118Z" fill="black"/>
<path fill-rule="evenodd" clip-rule="evenodd" d="M233.323 89.7169C236.244 87.8012 240.071 86.9491 244.163 87.3087C247.146 87.5708 249.991 88.2049 252.321 89.5521C254.781 90.975 256.57 93.1489 257.275 96.0928C257.744 98.0532 256.535 100.023 254.575 100.492C252.615 100.961 250.645 99.7521 250.176 97.7918C249.979 96.9711 249.557 96.3859 248.667 95.8709C247.645 95.2802 246 94.7976 243.524 94.5801C240.774 94.3384 238.648 94.9538 237.327 95.8205C236.034 96.6685 235.588 97.6602 235.588 98.5375C235.588 100.154 235.919 100.814 236.651 101.444C237.714 102.359 239.945 103.431 244.687 104.558C248.905 105.56 252.226 106.695 254.514 108.371C255.728 109.26 256.724 110.351 257.388 111.704C258.049 113.05 258.276 114.438 258.276 115.766C258.276 118.937 257.394 122.317 254.889 124.972C252.368 127.644 248.664 129.094 244.006 129.302C234.797 129.713 229.963 124.326 228.603 121.268C227.785 119.427 228.614 117.27 230.456 116.451C232.297 115.632 234.454 116.461 235.273 118.303C235.562 118.953 237.823 122.271 243.681 122.01C247.02 121.861 248.708 120.886 249.579 119.963C250.467 119.022 250.977 117.636 250.977 115.766C250.977 115.275 250.896 115.043 250.837 114.922C250.78 114.807 250.641 114.582 250.2 114.259C249.178 113.511 247.107 112.635 243 111.66C238.084 110.492 234.363 109.107 231.888 106.975C229.081 104.558 228.289 101.579 228.289 98.5375C228.289 94.7568 230.374 91.6513 233.323 89.7169Z" fill="black"/>
<path fill-rule="evenodd" clip-rule="evenodd" d="M27.8596 125.547C27.8596 123.531 29.4936 121.897 31.5093 121.897H43.9789C45.9945 121.897 47.6286 123.531 47.6286 125.547C47.6286 127.562 45.9945 129.196 43.9789 129.196H31.5093C29.4936 129.196 27.8596 127.562 27.8596 125.547Z" fill="black"/>
<path fill-rule="evenodd" clip-rule="evenodd" d="M48.176 125.547C48.176 123.531 49.8101 121.897 51.8257 121.897H64.2953C66.3109 121.897 67.945 123.531 67.945 125.547C67.945 127.562 66.3109 129.196 64.2953 129.196H51.8257C49.8101 129.196 48.176 127.562 48.176 125.547Z" fill="black"/>
<path fill-rule="evenodd" clip-rule="evenodd" d="M68.7968 125.547C68.7968 123.531 70.4308 121.897 72.4465 121.897H84.916C86.9317 121.897 88.5657 123.531 88.5657 125.547C88.5657 127.562 86.9317 129.196 84.916 129.196H72.4465C70.4308 129.196 68.7968 127.562 68.7968 125.547Z" fill="black"/>
<path fill-rule="evenodd" clip-rule="evenodd" d="M41.4855 96.1158C40.5523 96.9923 39.8751 98.3611 39.8751 100.391C39.8751 102.407 38.2411 104.041 36.2254 104.041C34.2097 104.041 32.5757 102.407 32.5757 100.391C32.5757 96.6106 33.9036 93.2227 36.4884 90.7951C39.0489 88.3903 42.5197 87.2279 46.2873 87.2279C50.0838 87.2279 53.4863 88.4271 55.9402 90.9181C58.3844 93.3993 59.504 96.7727 59.504 100.391V125.547C59.504 127.563 57.87 129.197 55.8543 129.197C53.8386 129.197 52.2046 127.563 52.2046 125.547V100.391C52.2046 98.2628 51.5665 96.8796 50.7401 96.0407C49.9234 95.2116 48.5423 94.5273 46.2873 94.5273C44.0032 94.5273 42.4431 95.2165 41.4855 96.1158Z" fill="black"/>
<path fill-rule="evenodd" clip-rule="evenodd" d="M60.8402 96.0804C60.0772 96.876 59.5039 98.2297 59.5039 100.437C59.5039 102.453 57.8698 104.087 55.8542 104.087C53.8385 104.087 52.2045 102.453 52.2045 100.437C52.2045 97.0363 53.0957 93.6102 55.5718 91.0282C58.0766 88.4162 61.6637 87.2279 65.8815 87.2279C70.0484 87.2279 73.617 88.3425 76.0831 91C78.501 93.6057 79.2602 97.058 79.2602 100.437V124.527C79.2602 126.543 77.6262 128.177 75.6105 128.177C73.5949 128.177 71.9608 126.543 71.9608 124.527V100.437C71.9608 98.0168 71.4046 96.6894 70.7325 95.9651C70.1086 95.2928 68.8126 94.5273 65.8815 94.5273C63.0011 94.5273 61.5745 95.3147 60.8402 96.0804Z" fill="black"/>
<path fill-rule="evenodd" clip-rule="evenodd" d="M25.1829 90.8776C25.1829 88.8619 26.8169 87.2279 28.8326 87.2279H31.351C33.457 87.2279 35.6474 87.6952 37.3596 89.1391C39.175 90.6701 39.875 92.8036 39.875 94.8926V125.037C39.875 127.053 38.2409 128.687 36.2253 128.687C34.2096 128.687 32.5756 127.053 32.5756 125.037V94.8926C32.5756 94.8032 32.5705 94.7347 32.5644 94.6843C32.4035 94.6237 32.04 94.5273 31.351 94.5273H28.8326C26.8169 94.5273 25.1829 92.8933 25.1829 90.8776Z" fill="black"/>
<path fill-rule="evenodd" clip-rule="evenodd" d="M127.369 125.547C127.369 123.531 129.003 121.897 131.019 121.897H145.549C147.565 121.897 149.199 123.531 149.199 125.547C149.199 127.562 147.565 129.196 145.549 129.196H131.019C129.003 129.196 127.369 127.562 127.369 125.547Z" fill="black"/>
<path fill-rule="evenodd" clip-rule="evenodd" d="M141.441 96.3569C140.205 97.3115 139.512 98.6251 139.512 100.437C139.512 102.453 137.878 104.087 135.862 104.087C133.846 104.087 132.212 102.453 132.212 100.437C132.212 96.4108 133.917 92.9446 136.98 90.5791C139.947 88.2886 143.913 87.2279 148.268 87.2279C151.234 87.2279 154.043 87.7984 156.175 89.4494C158.477 91.2314 159.396 93.7961 159.396 96.4221C159.396 98.4378 157.761 100.072 155.746 100.072C153.73 100.072 152.096 98.4378 152.096 96.4221C152.096 95.543 151.854 95.3355 151.707 95.2215C151.391 94.9765 150.461 94.5273 148.268 94.5273C145.012 94.5273 142.775 95.3272 141.441 96.3569Z" fill="black"/>
<path fill-rule="evenodd" clip-rule="evenodd" d="M124.82 90.8776C124.82 88.8619 126.454 87.2279 128.469 87.2279H130.988C133.094 87.2279 135.284 87.6952 136.996 89.1391C138.812 90.6701 139.512 92.8036 139.512 94.8926V125.037C139.512 127.053 137.878 128.687 135.862 128.687C133.846 128.687 132.212 127.053 132.212 125.037V94.8926C132.212 94.8032 132.207 94.7347 132.201 94.6843C132.04 94.6237 131.677 94.5273 130.988 94.5273H128.469C126.454 94.5273 124.82 92.8933 124.82 90.8776Z" fill="black"/>
</svg>
